<mxfile host="app.diagrams.net" modified="2023-11-12T14:55:21.145Z" agent="Mozilla/5.0 (Windows NT 10.0; Win64; x64) AppleWebKit/537.36 (KHTML, like Gecko) Chrome/119.0.0.0 Safari/537.36" etag="2aAsQhURzekWyzx0X5FY" version="22.1.0" type="device">
  <diagram name="Trang-1" id="zKqiIO-4BSlyCxOH4gJY">
    <mxGraphModel dx="794" dy="454" grid="1" gridSize="10" guides="1" tooltips="1" connect="1" arrows="1" fold="1" page="1" pageScale="1" pageWidth="827" pageHeight="1169" math="0" shadow="0">
      <root>
        <mxCell id="0" />
        <mxCell id="1" parent="0" />
        <mxCell id="qKFj4oYBbbOTFoBLaMDL-3" value="" style="edgeStyle=orthogonalEdgeStyle;rounded=0;orthogonalLoop=1;jettySize=auto;html=1;" edge="1" parent="1" source="qKFj4oYBbbOTFoBLaMDL-1" target="qKFj4oYBbbOTFoBLaMDL-2">
          <mxGeometry relative="1" as="geometry" />
        </mxCell>
        <mxCell id="qKFj4oYBbbOTFoBLaMDL-1" value="start" style="ellipse;whiteSpace=wrap;html=1;" vertex="1" parent="1">
          <mxGeometry x="70" y="90" width="120" height="80" as="geometry" />
        </mxCell>
        <mxCell id="qKFj4oYBbbOTFoBLaMDL-5" value="" style="edgeStyle=orthogonalEdgeStyle;rounded=0;orthogonalLoop=1;jettySize=auto;html=1;" edge="1" parent="1" source="qKFj4oYBbbOTFoBLaMDL-2" target="qKFj4oYBbbOTFoBLaMDL-4">
          <mxGeometry relative="1" as="geometry" />
        </mxCell>
        <mxCell id="qKFj4oYBbbOTFoBLaMDL-2" value="revenue" style="shape=parallelogram;perimeter=parallelogramPerimeter;whiteSpace=wrap;html=1;fixedSize=1;" vertex="1" parent="1">
          <mxGeometry x="270" y="100" width="120" height="60" as="geometry" />
        </mxCell>
        <mxCell id="qKFj4oYBbbOTFoBLaMDL-7" value="" style="edgeStyle=orthogonalEdgeStyle;rounded=0;orthogonalLoop=1;jettySize=auto;html=1;" edge="1" parent="1" source="qKFj4oYBbbOTFoBLaMDL-4" target="qKFj4oYBbbOTFoBLaMDL-6">
          <mxGeometry relative="1" as="geometry" />
        </mxCell>
        <mxCell id="qKFj4oYBbbOTFoBLaMDL-11" value="False" style="edgeLabel;html=1;align=center;verticalAlign=middle;resizable=0;points=[];" vertex="1" connectable="0" parent="qKFj4oYBbbOTFoBLaMDL-7">
          <mxGeometry x="-0.1583" y="1" relative="1" as="geometry">
            <mxPoint as="offset" />
          </mxGeometry>
        </mxCell>
        <mxCell id="qKFj4oYBbbOTFoBLaMDL-9" value="" style="edgeStyle=orthogonalEdgeStyle;rounded=0;orthogonalLoop=1;jettySize=auto;html=1;" edge="1" parent="1" source="qKFj4oYBbbOTFoBLaMDL-4">
          <mxGeometry relative="1" as="geometry">
            <mxPoint x="655" y="130" as="targetPoint" />
          </mxGeometry>
        </mxCell>
        <mxCell id="qKFj4oYBbbOTFoBLaMDL-10" value="True" style="edgeLabel;html=1;align=center;verticalAlign=middle;resizable=0;points=[];" vertex="1" connectable="0" parent="qKFj4oYBbbOTFoBLaMDL-9">
          <mxGeometry x="-0.2889" y="-1" relative="1" as="geometry">
            <mxPoint as="offset" />
          </mxGeometry>
        </mxCell>
        <mxCell id="qKFj4oYBbbOTFoBLaMDL-4" value="revenue&amp;lt;=100tr" style="rhombus;whiteSpace=wrap;html=1;" vertex="1" parent="1">
          <mxGeometry x="490" y="85" width="90" height="90" as="geometry" />
        </mxCell>
        <mxCell id="qKFj4oYBbbOTFoBLaMDL-13" value="" style="edgeStyle=orthogonalEdgeStyle;rounded=0;orthogonalLoop=1;jettySize=auto;html=1;" edge="1" parent="1" source="qKFj4oYBbbOTFoBLaMDL-6">
          <mxGeometry relative="1" as="geometry">
            <mxPoint x="655" y="300" as="targetPoint" />
          </mxGeometry>
        </mxCell>
        <mxCell id="qKFj4oYBbbOTFoBLaMDL-19" value="True" style="edgeLabel;html=1;align=center;verticalAlign=middle;resizable=0;points=[];" vertex="1" connectable="0" parent="qKFj4oYBbbOTFoBLaMDL-13">
          <mxGeometry x="-0.2936" y="4" relative="1" as="geometry">
            <mxPoint as="offset" />
          </mxGeometry>
        </mxCell>
        <mxCell id="qKFj4oYBbbOTFoBLaMDL-15" value="" style="edgeStyle=orthogonalEdgeStyle;rounded=0;orthogonalLoop=1;jettySize=auto;html=1;" edge="1" parent="1" source="qKFj4oYBbbOTFoBLaMDL-6">
          <mxGeometry relative="1" as="geometry">
            <mxPoint x="415" y="300" as="targetPoint" />
          </mxGeometry>
        </mxCell>
        <mxCell id="qKFj4oYBbbOTFoBLaMDL-20" value="False&amp;nbsp;" style="edgeLabel;html=1;align=center;verticalAlign=middle;resizable=0;points=[];" vertex="1" connectable="0" parent="qKFj4oYBbbOTFoBLaMDL-15">
          <mxGeometry x="-0.0376" y="1" relative="1" as="geometry">
            <mxPoint as="offset" />
          </mxGeometry>
        </mxCell>
        <mxCell id="qKFj4oYBbbOTFoBLaMDL-6" value="revenue&amp;lt;=300tr" style="rhombus;whiteSpace=wrap;html=1;" vertex="1" parent="1">
          <mxGeometry x="490" y="255" width="90" height="90" as="geometry" />
        </mxCell>
        <mxCell id="qKFj4oYBbbOTFoBLaMDL-16" value="profit=0.05*revenue" style="rounded=0;whiteSpace=wrap;html=1;" vertex="1" parent="1">
          <mxGeometry x="660" y="100" width="120" height="60" as="geometry" />
        </mxCell>
        <mxCell id="qKFj4oYBbbOTFoBLaMDL-17" value="profit=0.1*revenue" style="rounded=0;whiteSpace=wrap;html=1;" vertex="1" parent="1">
          <mxGeometry x="660" y="270" width="120" height="60" as="geometry" />
        </mxCell>
        <mxCell id="qKFj4oYBbbOTFoBLaMDL-18" value="profit=0.2*revenue" style="rounded=0;whiteSpace=wrap;html=1;" vertex="1" parent="1">
          <mxGeometry x="294" y="270" width="120" height="60" as="geometry" />
        </mxCell>
        <mxCell id="qKFj4oYBbbOTFoBLaMDL-23" value="" style="edgeStyle=orthogonalEdgeStyle;rounded=0;orthogonalLoop=1;jettySize=auto;html=1;" edge="1" parent="1" source="qKFj4oYBbbOTFoBLaMDL-21" target="qKFj4oYBbbOTFoBLaMDL-22">
          <mxGeometry relative="1" as="geometry" />
        </mxCell>
        <mxCell id="qKFj4oYBbbOTFoBLaMDL-21" value="profit" style="shape=parallelogram;perimeter=parallelogramPerimeter;whiteSpace=wrap;html=1;fixedSize=1;" vertex="1" parent="1">
          <mxGeometry x="500" y="380" width="120" height="60" as="geometry" />
        </mxCell>
        <mxCell id="qKFj4oYBbbOTFoBLaMDL-22" value="end" style="ellipse;whiteSpace=wrap;html=1;" vertex="1" parent="1">
          <mxGeometry x="500" y="505" width="120" height="80" as="geometry" />
        </mxCell>
        <mxCell id="qKFj4oYBbbOTFoBLaMDL-24" value="" style="endArrow=classic;html=1;rounded=0;exitX=0.5;exitY=1;exitDx=0;exitDy=0;entryX=0.067;entryY=0.633;entryDx=0;entryDy=0;entryPerimeter=0;" edge="1" parent="1" source="qKFj4oYBbbOTFoBLaMDL-18" target="qKFj4oYBbbOTFoBLaMDL-21">
          <mxGeometry width="50" height="50" relative="1" as="geometry">
            <mxPoint x="430" y="380" as="sourcePoint" />
            <mxPoint x="480" y="330" as="targetPoint" />
          </mxGeometry>
        </mxCell>
        <mxCell id="qKFj4oYBbbOTFoBLaMDL-25" value="" style="endArrow=classic;html=1;rounded=0;entryX=1;entryY=0.5;entryDx=0;entryDy=0;" edge="1" parent="1" source="qKFj4oYBbbOTFoBLaMDL-17" target="qKFj4oYBbbOTFoBLaMDL-21">
          <mxGeometry width="50" height="50" relative="1" as="geometry">
            <mxPoint x="680" y="430" as="sourcePoint" />
            <mxPoint x="730" y="380" as="targetPoint" />
          </mxGeometry>
        </mxCell>
        <mxCell id="qKFj4oYBbbOTFoBLaMDL-26" value="" style="endArrow=classic;html=1;rounded=0;entryX=0.833;entryY=1.011;entryDx=0;entryDy=0;exitX=1;exitY=0.5;exitDx=0;exitDy=0;entryPerimeter=0;" edge="1" parent="1" source="qKFj4oYBbbOTFoBLaMDL-16" target="qKFj4oYBbbOTFoBLaMDL-21">
          <mxGeometry width="50" height="50" relative="1" as="geometry">
            <mxPoint x="800" y="130" as="sourcePoint" />
            <mxPoint x="480" y="330" as="targetPoint" />
            <Array as="points">
              <mxPoint x="800" y="130" />
              <mxPoint x="800" y="220" />
              <mxPoint x="800" y="310" />
              <mxPoint x="800" y="440" />
            </Array>
          </mxGeometry>
        </mxCell>
      </root>
    </mxGraphModel>
  </diagram>
</mxfile>
